<svg width="110" height="32" viewBox="0 0 110 32" version="1.1" xmlns="http://www.w3.org/2000/svg" xmlns:xlink="http://www.w3.org/1999/xlink">
<g id="Canvas" fill="none">
<g id="logo">
<g id="Canvas_2">
<g id="Group 2">
<g id="Group">
<g id="&#195;&#144;&#194;&#161;&#195;&#144;&#194;&#154;&#195;&#144;&#194;&#163;&#195;&#144;&#194;&#148; &#195;&#162;&#194;&#128;&#194;&#156;&#195;&#144;&#194;&#146;&#195;&#145;&#194;&#139;&#195;&#144;&#194;&#180;&#195;&#144;&#194;&#176;&#195;&#145;&#194;&#135;&#195;&#144;&#194;&#176; &#195;&#144;&#194;&#186;&#195;&#144;&#194;&#187;&#195;&#145;&#194;&#142;&#195;&#145;&#194;&#135;&#195;&#144;&#194;&#181;&#195;&#144;&#194;&#185;&#195;&#162;&#194;&#128;&#194;&#157;">
<g id="Vector">
<path d="M 9.89721 8.16847C 9.77582 9.43477 9.30142 10.4239 8.47388 11.1358C 7.64634 11.8424 6.54572 12.1957 5.17204 12.1957C 4.2121 12.1957 3.36528 11.9729 2.63153 11.5272C 1.90331 11.0761 1.34059 10.4375 0.943381 9.61139C 0.546168 8.78531 0.339286 7.82607 0.322734 6.73369L 0.322734 5.62503C 0.322734 4.50545 0.524101 3.51903 0.926829 2.66577C 1.32956 1.8125 1.90607 1.15489 2.65636 0.692939C 3.41216 0.230984 4.28383 1.61133e-07 5.27134 1.61133e-07C 6.60087 1.61133e-07 7.67119 0.355979 8.48214 1.06794C 9.29309 1.7799 9.7648 2.78533 9.89721 4.08423L 7.81186 4.08423C 7.71257 3.23098 7.45878 2.61685 7.05055 2.24185C 6.64776 1.86142 6.05473 1.6712 5.27134 1.6712C 4.36106 1.6712 3.66043 2 3.16942 2.65761C 2.68394 3.30979 2.43569 4.26899 2.42466 5.53536L 2.42466 6.58698C 2.42466 7.86955 2.65636 8.84785 3.11977 9.52173C 3.5887 10.1957 4.27279 10.5326 5.17204 10.5326C 5.99405 10.5326 6.61196 10.3505 7.0257 9.98642C 7.43943 9.62232 7.70149 9.01633 7.81186 8.16847L 9.89721 8.16847ZM 15.3423 6.94566L 13.919 6.94566L 13.919 12.0326L 11.8336 12.0326L 11.8336 0.163047L 13.919 0.163047L 13.919 5.15219L 15.0692 5.15219L 18.6111 0.163047L 21.1764 0.163047L 17.0388 5.84513L 21.5405 12.0326L 19.0248 12.0326L 15.3423 6.94566ZM 27.0353 6.36687L 29.4516 0.163047L 31.777 0.163047L 27.5815 10.0109L 27.2008 10.7528C 26.6491 11.7201 25.7553 12.2038 24.5196 12.2038L 23.659 12.1549L 23.6755 10.5244C 23.8079 10.5462 24.0424 10.5571 24.3789 10.5571C 24.9748 10.5571 25.394 10.307 25.6368 9.80708L 26.067 8.80437L 21.946 0.163047L 24.23 0.163047L 27.0353 6.36687ZM 43.7762 14.9511L 41.7901 14.9511L 41.7901 12.0326L 33.8541 12.0326L 33.8541 14.9511L 31.8349 14.9511L 31.7688 10.3859L 32.737 10.3859C 33.2169 9.92938 33.6003 9.26628 33.8872 8.39672C 34.1741 7.52172 34.3589 6.53265 34.4416 5.42934L 34.7561 0.163047L 42.3528 0.163047L 42.3528 10.3859L 43.8837 10.3859L 43.7762 14.9511ZM 35.1036 10.3859L 40.2674 10.3859L 40.2674 1.82609L 36.7504 1.82609L 36.5518 5.16847C 36.4029 7.40221 35.9202 9.14134 35.1036 10.3859ZM 0.883386 17.822L 1.48196 18.1882C 1.18911 18.6099 1.03786 19.0489 1.0282 19.5054L 1.0282 20.2282L 8.17829e-09 20.2282L 8.17829e-09 19.572C 0.00321867 19.2677 0.0868903 18.9507 0.251016 18.6209C 0.418361 18.2881 0.629149 18.0218 0.883386 17.822ZM 2.50533 17.822L 3.10391 18.1882C 2.81106 18.6099 2.65981 19.0489 2.65015 19.5054L 2.65015 20.2282L 1.62195 20.2282L 1.62195 19.572C 1.62517 19.2677 1.70884 18.9507 1.87296 18.6209C 2.04031 18.2881 2.2511 18.0218 2.50533 17.822ZM 3.99695 25.25L 3.99695 18.3261L 6.40574 18.3261C 7.20061 18.3261 7.80565 18.483 8.22079 18.7969C 8.63594 19.1107 8.84348 19.5784 8.84348 20.1997C 8.84348 20.5168 8.75663 20.8021 8.58284 21.0557C 8.40906 21.3093 8.15484 21.5059 7.82012 21.6454C 8.19989 21.7468 8.49273 21.9386 8.69865 22.2208C 8.90788 22.4997 9.01247 22.8358 9.01247 23.2289C 9.01247 23.8789 8.80005 24.3781 8.37523 24.7269C 7.95366 25.0756 7.34869 25.25 6.5602 25.25L 3.99695 25.25ZM 5.21824 22.1257L 5.21824 24.2894L 6.57468 24.2894C 6.95762 24.2894 7.25696 24.1959 7.47255 24.0088C 7.68821 23.8218 7.79597 23.5618 7.79597 23.2289C 7.79597 22.5093 7.4227 22.1416 6.67608 22.1257L 5.21824 22.1257ZM 5.21824 21.2412L 6.4154 21.2412C 6.79514 21.2412 7.09123 21.1571 7.30364 20.9891C 7.51923 20.8179 7.62706 20.577 7.62706 20.2663C 7.62706 19.924 7.52728 19.6766 7.32772 19.5244C 7.13141 19.3723 6.82409 19.2962 6.40574 19.2962L 5.21824 19.2962L 5.21824 21.2412ZM 11.3826 21.7405L 12.5315 21.7405C 12.9595 21.7405 13.3328 21.8134 13.6514 21.9592C 13.97 22.1051 14.2114 22.3096 14.3755 22.5727C 14.5429 22.8358 14.6265 23.1418 14.6265 23.4905C 14.6265 24.02 14.4367 24.4447 14.0569 24.7649C 13.6772 25.0851 13.1719 25.2468 12.5411 25.25L 10.2096 25.25L 10.2096 20.1046L 11.3826 20.1046L 11.3826 21.7405ZM 16.6685 25.25L 15.4954 25.25L 15.4954 20.1046L 16.6685 20.1046L 16.6685 25.25ZM 11.3826 22.6678L 11.3826 24.3274L 12.5267 24.3274C 12.8131 24.3274 13.0383 24.2577 13.2025 24.1182C 13.3698 23.9756 13.4535 23.7742 13.4535 23.5143C 13.4535 23.2543 13.3714 23.0498 13.2073 22.9008C 13.0464 22.7486 12.8275 22.6709 12.5508 22.6678L 11.3826 22.6678ZM 18.0973 24.3274C 18.4223 23.9692 18.6396 23.63 18.749 23.3098C 18.8616 22.9864 18.9292 22.5742 18.9517 22.0734L 19.0193 20.1046L 22.6446 20.1046L 22.6446 24.3274L 23.3687 24.3274L 23.3687 26.7813L 22.2005 26.7813L 22.2005 25.25L 18.8503 25.25L 18.8503 26.7813L 17.6629 26.7813L 17.6677 24.3274L 18.0973 24.3274ZM 19.4731 24.3274L 21.4764 24.3274L 21.4764 21.0985L 20.1586 21.0985L 20.1247 22.0829C 20.0797 23.0276 19.8625 23.7758 19.4731 24.3274ZM 27.327 25.25C 27.2755 25.1517 27.2304 24.9916 27.1918 24.7697C 26.8185 25.1533 26.3615 25.3451 25.8209 25.3451C 25.2963 25.3451 24.8683 25.1977 24.5369 24.9029C 24.2054 24.608 24.0396 24.2435 24.0396 23.8091C 24.0396 23.2606 24.2456 22.8406 24.6575 22.5489C 25.0726 22.2541 25.6648 22.1066 26.434 22.1066L 27.1532 22.1066L 27.1532 21.769C 27.1532 21.5027 27.0776 21.2903 26.9263 21.1318C 26.775 20.9701 26.545 20.8892 26.236 20.8892C 25.9689 20.8892 25.7501 20.9558 25.5795 21.089C 25.409 21.219 25.3237 21.3854 25.3237 21.5883L 24.1507 21.5883C 24.1507 21.3061 24.2456 21.043 24.4355 20.7989C 24.6254 20.5516 24.8828 20.3582 25.2078 20.2188C 25.5361 20.0793 25.9013 20.0095 26.3036 20.0095C 26.9151 20.0095 27.4026 20.1617 27.7663 20.466C 28.1299 20.7672 28.3166 21.1921 28.3262 21.7405L 28.3262 24.0611C 28.3262 24.524 28.3922 24.8933 28.5241 25.1692L 28.5241 25.25L 27.327 25.25ZM 26.0381 24.4178C 26.2699 24.4178 26.4871 24.3624 26.6898 24.2514C 26.8957 24.1404 27.0502 23.9914 27.1532 23.8044L 27.1532 22.8342L 26.5208 22.8342C 26.0864 22.8342 25.7597 22.9087 25.5409 23.0577C 25.322 23.2067 25.2127 23.4176 25.2127 23.6902C 25.2127 23.9121 25.2867 24.0897 25.4347 24.2228C 25.5859 24.3528 25.7871 24.4178 26.0381 24.4178ZM 33.7424 25.25L 32.5694 25.25L 32.5694 23.5333C 32.2669 23.603 31.9483 23.6379 31.6135 23.6379C 30.8991 23.6379 30.3537 23.4699 29.9772 23.1338C 29.6006 22.7946 29.4123 22.3096 29.4123 21.6787L 29.4123 20.0999L 30.5854 20.0999L 30.5854 21.6787C 30.5854 22.0528 30.6691 22.3175 30.8363 22.4728C 31.007 22.6282 31.266 22.7059 31.6135 22.7059C 31.929 22.7059 32.2475 22.6694 32.5694 22.5964L 32.5694 20.1046L 33.7424 20.1046L 33.7424 25.25ZM 38.111 25.25C 38.0595 25.1517 38.0145 24.9916 37.9759 24.7697C 37.6026 25.1533 37.1456 25.3451 36.6049 25.3451C 36.0804 25.3451 35.6523 25.1977 35.3209 24.9029C 34.9894 24.608 34.8237 24.2435 34.8237 23.8091C 34.8237 23.2606 35.0296 22.8406 35.4415 22.5489C 35.8567 22.2541 36.4489 22.1066 37.218 22.1066L 37.9372 22.1066L 37.9372 21.769C 37.9372 21.5027 37.8616 21.2903 37.7104 21.1318C 37.5591 20.9701 37.329 20.8892 37.0201 20.8892C 36.7529 20.8892 36.5341 20.9558 36.3636 21.089C 36.193 21.219 36.1077 21.3854 36.1077 21.5883L 34.9347 21.5883C 34.9347 21.3061 35.0296 21.043 35.2195 20.7989C 35.4094 20.5516 35.6668 20.3582 35.9918 20.2188C 36.3201 20.0793 36.6854 20.0095 37.0877 20.0095C 37.6991 20.0095 38.1867 20.1617 38.5503 20.466C 38.914 20.7672 39.1006 21.1921 39.1102 21.7405L 39.1102 24.0611C 39.1102 24.524 39.1763 24.8933 39.3082 25.1692L 39.3082 25.25L 38.111 25.25ZM 36.8221 24.4178C 37.0538 24.4178 37.2711 24.3624 37.4739 24.2514C 37.6798 24.1404 37.8343 23.9914 37.9372 23.8044L 37.9372 22.8342L 37.3049 22.8342C 36.8704 22.8342 36.5438 22.9087 36.3249 23.0577C 36.1061 23.2067 35.9967 23.4176 35.9967 23.6902C 35.9967 23.9121 36.0707 24.0897 36.2187 24.2228C 36.37 24.3528 36.5711 24.4178 36.8221 24.4178ZM 44.6567 23.2147L 44.063 23.2147L 44.063 25.25L 42.89 25.25L 42.89 20.1046L 44.063 20.1046L 44.063 22.1589L 44.5795 22.1589L 46.0229 20.1046L 47.471 20.1046L 45.5836 22.5679L 47.6304 25.25L 46.1049 25.25L 44.6567 23.2147ZM 52.7134 20.1046L 52.7134 25.25L 51.5404 25.25L 51.5404 21.0367L 50.0633 21.0367L 49.9667 22.8295C 49.9056 23.6918 49.7366 24.3116 49.4599 24.6889C 49.1863 25.0629 48.7663 25.25 48.1999 25.25L 47.8379 25.25L 47.8331 24.2894L 48.0745 24.2657C 48.3319 24.2307 48.5186 24.077 48.6344 23.8044C 48.7535 23.5285 48.8291 23.0276 48.8613 22.3016L 48.9579 20.1046L 52.7134 20.1046ZM 55.2332 22.1732L 56.218 22.1732C 56.3049 21.517 56.5623 20.9923 56.9904 20.5992C 57.4184 20.206 57.959 20.0095 58.6123 20.0095C 59.3171 20.0095 59.8883 20.233 60.326 20.6801C 60.7668 21.127 61.005 21.7199 61.0404 22.4586L 61.0452 22.7297C 61.0452 23.2369 60.9455 23.6902 60.7459 24.0897C 60.5496 24.4891 60.2664 24.7982 59.8963 25.017C 59.5295 25.2357 59.1047 25.3451 58.6219 25.3451C 57.9462 25.3451 57.391 25.139 56.9566 24.7269C 56.5253 24.3148 56.2759 23.7726 56.2083 23.1006L 55.2332 23.1006L 55.2332 25.25L 54.0602 25.25L 54.0602 20.1046L 55.2332 20.1046L 55.2332 22.1732ZM 57.362 22.7297C 57.362 23.259 57.4731 23.6744 57.6951 23.9756C 57.9172 24.2736 58.2261 24.4225 58.6219 24.4225C 59.0178 24.4225 59.3251 24.2704 59.544 23.966C 59.7628 23.6617 59.8722 23.2163 59.8722 22.6298C 59.8722 22.1003 59.7579 21.6866 59.5295 21.3886C 59.3042 21.0874 58.9985 20.9368 58.6123 20.9368C 58.2293 20.9368 57.9253 21.0874 57.6999 21.3886C 57.4747 21.6866 57.362 22.1336 57.362 22.7297ZM 66.2007 25.25L 65.0277 25.25L 65.0277 23.5333C 64.7252 23.603 64.4066 23.6379 64.0719 23.6379C 63.3575 23.6379 62.812 23.4699 62.4355 23.1338C 62.0589 22.7946 61.8707 22.3096 61.8707 21.6787L 61.8707 20.0999L 63.0437 20.0999L 63.0437 21.6787C 63.0437 22.0528 63.1274 22.3175 63.2947 22.4728C 63.4653 22.6282 63.7243 22.7059 64.0719 22.7059C 64.3873 22.7059 64.7059 22.6694 65.0277 22.5964L 65.0277 20.1046L 66.2007 20.1046L 66.2007 25.25ZM 69.7487 25.3451C 69.0053 25.3451 68.4019 25.1153 67.9385 24.6556C 67.4783 24.1927 67.2482 23.5777 67.2482 22.8105L 67.2482 22.6678C 67.2482 22.1542 67.348 21.6961 67.5475 21.2935C 67.7503 20.8877 68.0335 20.5722 68.3971 20.3471C 68.7608 20.1221 69.1663 20.0095 69.6135 20.0095C 70.3244 20.0095 70.8738 20.233 71.2594 20.6801C 71.6492 21.127 71.8441 21.7595 71.8441 22.5774L 71.8441 23.0435L 68.4309 23.0435C 68.4663 23.4683 68.6095 23.8044 68.8605 24.0516C 69.1148 24.2989 69.4333 24.4225 69.8163 24.4225C 70.3541 24.4225 70.7912 24.2085 71.1294 23.7806L 71.7615 24.375C 71.5524 24.6825 71.2728 24.9219 70.9218 25.0931C 70.5744 25.2611 70.1832 25.3451 69.7487 25.3451ZM 69.6087 20.9368C 69.2869 20.9368 69.0262 21.0478 68.8267 21.2697C 68.6304 21.4916 68.5049 21.8008 68.4502 22.197L 70.6853 22.197L 70.6853 22.1114C 70.6591 21.7246 70.5546 21.433 70.3717 21.2364C 70.1881 21.0367 69.9338 20.9368 69.6087 20.9368ZM 76.0196 20.1046L 77.1876 20.1046L 77.1876 25.25L 76.0196 25.25L 76.0196 21.8166L 73.9724 25.25L 72.8045 25.25L 72.8045 20.1046L 73.9724 20.1046L 73.9724 23.5381L 76.0196 20.1046ZM 76.5697 18.1311C 76.5697 18.5306 76.4277 18.854 76.1446 19.1012C 75.8614 19.3485 75.4836 19.4721 75.0105 19.4721C 74.5374 19.4721 74.1596 19.3485 73.8757 19.1012C 73.5925 18.854 73.4513 18.5306 73.4513 18.1311L 74.3298 18.1311C 74.3298 18.3404 74.3891 18.5036 74.5084 18.6209C 74.6306 18.7351 74.7979 18.7921 75.0105 18.7921C 75.223 18.7921 75.3883 18.7351 75.5076 18.6209C 75.627 18.5036 75.6863 18.3404 75.6863 18.1311L 76.5697 18.1311ZM 78.7418 20.3804L 78.143 20.0142C 78.4332 19.5989 78.5829 19.1598 78.5921 18.697L 78.5921 17.9457L 79.6203 17.9457L 79.6203 18.6019C 79.6203 18.9285 79.5348 19.2581 79.3646 19.591C 79.1973 19.9208 78.9897 20.1838 78.7418 20.3804ZM 80.354 20.3804L 79.7558 20.0142C 80.0454 19.5989 80.1951 19.1598 80.2043 18.697L 80.2043 17.9457L 81.2324 17.9457L 81.2324 18.6019C 81.2324 18.9285 81.1477 19.2581 80.9768 19.591C 80.8094 19.9208 80.6018 20.1838 80.354 20.3804Z" transform="translate(28.7676 3.27173)" fill="white"/>
</g>
</g>
<g id="26053">
<g id="Group_2">
<g id="x32 37. Locked">
<g id="Group_3">
<g id="Vector_2">
<g id="Vector_3">
<path d="M 19.7726 12.5211L 19.7726 8.34783C 19.7726 3.73702 15.9783 0 11.2986 0C 6.6181 0 2.82452 3.73702 2.82452 8.34783L 2.82452 12.5211C 1.26474 12.5211 0 13.767 0 15.3036L 0 29.2173C 0 30.7543 1.26474 32 2.82452 32L 19.7726 32C 21.3325 32 22.597 30.7542 22.597 29.2173L 22.597 15.3036C 22.5971 13.767 21.3325 12.5211 19.7726 12.5211ZM 5.64922 8.34783C 5.64922 5.27384 8.17869 2.78265 11.2986 2.78265C 14.4186 2.78265 16.948 5.27375 16.948 8.34783L 16.948 12.5211L 5.64922 12.5211L 5.64922 8.34783ZM 19.7726 29.2173L 2.82452 29.2173L 2.82452 15.3043L 19.7726 15.3043L 19.7726 29.2173ZM 9.88618 23.2662L 9.88618 25.0433C 9.88618 25.8111 10.519 26.4346 11.2986 26.4346C 12.0779 26.4346 12.7109 25.8111 12.7109 25.0433L 12.7109 23.2662C 13.5508 22.7841 14.1233 21.8966 14.1233 20.8696C 14.1233 19.3323 12.8583 18.0863 11.2986 18.0863C 9.73873 18.0863 8.47401 19.3323 8.47401 20.8696C 8.47401 21.8966 9.04593 22.7841 9.88618 23.2662Z" fill="white"/>
</g>
</g>
</g>
</g>
</g>
</g>
</g>
</g>
</g>
</g>
</g>
</svg>

