<svg width="187" height="266" viewBox="0 0 187 266" fill="none" xmlns="http://www.w3.org/2000/svg">
<path d="M163.627 104.082V69.3913C163.627 31.0639 132.227 0 93.5006 0C54.7677 0 23.3742 31.0639 23.3742 69.3913V104.082C10.4663 104.082 0 114.438 0 127.211V242.869C0 255.645 10.4663 266 23.3742 266H163.627C176.536 266 187 255.644 187 242.869V127.211C187.001 114.438 176.536 104.082 163.627 104.082ZM46.7498 69.3913C46.7498 43.8388 67.6823 23.1308 93.5006 23.1308C119.32 23.1308 140.252 43.8381 140.252 69.3913V104.082H46.7498V69.3913ZM163.627 242.868H23.3742V127.217H163.627V242.868ZM81.8125 193.401V208.172C81.8125 214.554 87.0497 219.738 93.5006 219.738C99.9497 219.738 105.188 214.554 105.188 208.172V193.401C112.139 189.393 116.876 182.016 116.876 173.478C116.876 160.7 106.408 150.342 93.5006 150.342C80.5923 150.342 70.1262 160.7 70.1262 173.478C70.1262 182.016 74.859 189.393 81.8125 193.401Z" fill="#1A4A9C"/>
</svg>
