<svg width="306" height="210" viewBox="0 0 306 210" fill="none" xmlns="http://www.w3.org/2000/svg">
<path d="M30.2684 -6.33671e-06C21.8592 -6.33671e-06 14.714 2.94398 8.82663 8.82917C2.94313 14.7138 0 21.8614 0 30.2709C0 38.6826 2.94037 45.8285 8.82663 51.7132C14.714 57.5984 21.8615 60.5423 30.2684 60.5423C38.6765 60.5423 45.8223 57.5984 51.7086 51.7132C57.5926 45.8285 60.5357 38.6826 60.5357 30.2709C60.5357 21.8609 57.5926 14.7138 51.7086 8.82917C45.824 2.94398 38.6782 -6.33671e-06 30.2684 -6.33671e-06Z" transform="translate(110.187 179.142) rotate(-45)" fill="#1A4A9C"/>
<path d="M99.9505 41.3079C88.0731 29.3255 74.4629 19.7872 59.1177 12.6932C43.7726 5.59693 27.6908 1.36624 10.8758 0H10.0889C7.35617 0 5.09609 0.894066 3.31088 2.68055C1.10271 4.57031 0 7.04213 0 10.0899V31.3748C0 34.0018 0.866374 36.2621 2.59967 38.1557C4.33353 40.0494 6.5141 41.1003 9.14193 41.3079C33.2093 43.6212 53.7831 53.3202 70.861 70.3987C87.94 87.4772 97.6363 108.054 99.9483 132.123C100.159 134.754 101.209 136.934 103.102 138.665C104.995 140.404 107.253 141.272 109.88 141.272H131.164C134.211 141.272 136.68 140.17 138.572 137.961C140.571 135.855 141.463 133.332 141.257 130.39C139.889 113.576 135.658 97.4914 128.564 82.1459C121.471 66.7981 111.932 53.1876 99.9505 41.3079Z" transform="translate(53.1045 122.06) rotate(-45)" fill="#1A4A9C"/>
<path d="M203.053 132.361C191.808 107.187 176.358 84.8253 156.705 65.2739C137.155 45.6176 114.797 30.1671 89.6231 18.9197C64.4524 7.67444 38.0984 1.36624 10.561 -2.46869e-10H10.0889C7.35617 -2.46869e-10 5.04419 0.945983 3.15186 2.8385C1.0508 4.72881 0 7.14816 0 10.0916V32.6367C0 35.2653 0.920488 37.5499 2.7587 39.4949C4.59747 41.4405 6.82994 42.4637 9.45778 42.5709C32.0553 43.9393 53.5214 49.3016 73.8588 58.6559C94.1957 68.0108 111.852 80.1777 126.83 95.1533C141.804 110.132 153.969 127.791 163.323 148.13C172.677 168.472 177.987 189.937 179.247 212.536C179.355 215.167 180.377 217.4 182.32 219.239C184.265 221.078 186.606 222 189.338 222H211.88C214.823 222 217.236 220.95 219.132 218.844C221.235 216.742 222.178 214.275 221.972 211.436C220.608 183.893 214.298 157.537 203.053 132.361Z" transform="translate(-3.97778 64.9777) rotate(-45)" fill="#1A4A9C"/>
</svg>
